<svg version="1.1" viewBox="0.0 0.0 512.0 512.0" fill="none" stroke="none" stroke-linecap="square" stroke-miterlimit="10" xmlns:xlink="http://www.w3.org/1999/xlink" xmlns="http://www.w3.org/2000/svg"><clipPath id="p.0"><path d="m0 0l512.0 0l0 512.0l-512.0 0l0 -512.0z" clip-rule="nonzero"/></clipPath><g clip-path="url(#p.0)"><path fill="#000000" fill-opacity="0.0" d="m0 0l512.0 0l0 512.0l-512.0 0z" fill-rule="evenodd"/><path fill="#e0e9f7" d="m-0.0055979 256.0c0 -141.38489 114.615105 -256.0 256.0 -256.0c67.89543 0 133.01003 26.971352 181.01933 74.98067c48.009308 48.009308 74.98068 113.12392 74.98068 181.01933c0 141.38489 -114.61511 256.0 -256.0 256.0c-141.38489 0 -256.0 -114.61511 -256.0 -256.0z" fill-rule="evenodd"/><path fill="#000000" fill-opacity="0.0" d="m0 0l512.0 0l0 512.0l-512.0 0z" fill-rule="evenodd"/><path fill="#000000" d="m95.173096 392.1156q0 -7.9375 4.71875 -16.65625q4.71875 -8.734375 10.625 -15.953125q5.90625 -7.234375 11.328125 -12.875q5.4375 -5.640625 7.25 -7.15625l91.6875 -167.96875q4.359375 -3.484375 7.453125 -8.328125q3.109375 -4.84375 6.984375 -10.09375q3.890625 -5.265625 9.53125 -9.5625q5.65625 -4.3125 20.8125 -4.3125q0 13.84375 -1.609375 24.15625q-1.609375 10.3125 -5.15625 15.921875l-73.734375 127.5625q1.046875 -2.46875 13.203125 -0.3125q12.15625 2.140625 22.15625 8.0625q10.015625 5.921875 18.421875 13.90625q8.421875 7.96875 15.5625 14.921875q7.15625 6.9375 12.765625 11.15625q5.625 4.203125 10.0625 4.203125q11.71875 0 24.1875 -13.21875q12.46875 -13.234375 24.640625 -35.5625q12.1875 -22.328125 22.46875 -49.890625q10.296875 -27.578125 17.71875 -53.765625q7.421875 -26.1875 11.5 -47.609375q4.078125 -21.421875 4.078125 -31.625q0 -5.328125 -0.921875 -11.40625q-0.921875 -6.09375 -3.25 -10.578125q-2.328125 -4.5 -5.65625 -7.09375q-3.3125 -2.59375 -8.515625 -2.59375q-8.40625 0 -16.25 8.1875q-7.828125 8.1875 -14.984375 22.484375q-7.140625 14.296875 -12.65625 32.46875q-5.5 18.15625 -9.40625 35.390625q-3.890625 17.21875 -5.71875 31.4375q-1.828125 14.203125 -1.828125 21.28125q0 7.53125 1.734375 14.484375q1.734375 6.9375 4.234375 14.015625q2.5 7.0625 4.515625 14.90625q2.015625 7.828125 2.015625 23.25q-20.75 0 -29.21875 -7.171875q-8.453125 -7.171875 -12.25 -17.125q-3.796875 -9.96875 -4.90625 -20.78125q-1.09375 -10.8125 -1.09375 -19.90625q0 -10.5 2.765625 -28.8125q2.765625 -18.328125 8.046875 -39.265625q5.296875 -20.953125 13.171875 -42.640625q7.875 -21.703125 18.5 -39.734375q10.640625 -18.03125 24.703125 -30.234375q14.0625 -12.21875 31.546875 -12.21875q1.5625 0 5.9375 0.421875q4.375 0.421875 8.515625 0.421875q8.84375 11.046875 14.0625 18.875q5.21875 7.828125 9.03125 15.921875q3.828125 8.078125 5.625 17.140625q1.8125 9.046875 1.8125 20.125q0 13.453125 -4.015625 38.453125q-4.015625 24.984375 -11.59375 54.65625q-7.578125 29.65625 -18.5625 60.703125q-10.984375 31.03125 -25.546875 56.734375q-14.546875 25.6875 -32.96875 42.984375q-18.40625 17.28125 -40.625 17.28125q-14.75 0 -25.21875 -4.640625q-10.453125 -4.65625 -18.140625 -11.203125q-7.6875 -6.5625 -13.59375 -13.9375q-5.90625 -7.390625 -11.6875 -12.96875q-5.78125 -5.59375 -12.140625 -9.125q-6.359375 -3.53125 -15.46875 -3.53125q-8.8125 0 -15.796875 5.9375q-6.984375 5.921875 -12.828125 15.65625q-5.828125 9.734375 -10.3125 20.75q-4.46875 11.0 -9.484375 23.484375q-4.953125 0 -6.828125 0.203125q-1.875 0.21875 -3.078125 0.21875q-2.875 0 -7.046875 -0.984375q-4.171875 -0.984375 -8.375 -2.71875q-4.1875 -1.734375 -8.546875 -5.078125q-4.359375 -3.34375 -4.359375 -9.125z" fill-rule="nonzero"/></g></svg>